<svg version="1.1" xmlns="http://www.w3.org/2000/svg" viewBox="0 0 763.2172495764838 414.6191922637707" width="2289.6517487294514" height="1243.857576791312">
  <!-- svg-source:excalidraw -->
  
  <defs>
    <style class="style-fonts">
      @font-face {
        font-family: "Virgil";
        src: url("https://excalidraw.com/Virgil.woff2");
      }
      @font-face {
        font-family: "Cascadia";
        src: url("https://excalidraw.com/Cascadia.woff2");
      }
    </style>
  </defs>
  <rect x="0" y="0" width="763.2172495764838" height="414.6191922637707" fill="#ffffff"></rect><g transform="translate(424.459242715953 20.631981091555545) rotate(0 31.999999999999943 18)"><text x="0" y="25" font-family="Virgil, Segoe UI Emoji" font-size="28px" fill="#000000" text-anchor="start" style="white-space: pre;" direction="ltr">Host</text></g><g transform="translate(472.7404492929769 336.9606012845583) rotate(0 72 18)"><text x="0" y="25" font-family="Virgil, Segoe UI Emoji" font-size="28px" fill="#000000" text-anchor="start" style="white-space: pre;" direction="ltr">Viewer x N</text></g><g transform="translate(618.2172495764838 37.5687007126776) rotate(0 67.5 38.5)"><text x="0" y="17.666666666666668" font-family="Virgil, Segoe UI Emoji" font-size="20px" fill="#000000" text-anchor="start" style="white-space: pre;" direction="ltr">Create room</text><text x="0" y="43.333333333333336" font-family="Virgil, Segoe UI Emoji" font-size="20px" fill="#000000" text-anchor="start" style="white-space: pre;" direction="ltr">Share camera</text><text x="0" y="69" font-family="Virgil, Segoe UI Emoji" font-size="20px" fill="#000000" text-anchor="start" style="white-space: pre;" direction="ltr">Share screen</text></g><g stroke-linecap="round"><g transform="translate(511.46559880325356 37.05280417858417) rotate(0 47.62663666686558 18.77179053699399)"><path d="M-0.99 1.17 C14.69 7.16, 78.12 29.53, 93.94 35.42 M0.7 0.74 C16.76 6.95, 80.28 31.15, 96.24 36.8" stroke="#000000" stroke-width="1" fill="none"></path></g></g><mask></mask><g stroke-linecap="round"><g transform="translate(471.61973625180383 73.82698376499441) rotate(0 29.584283608216197 120.59082783559069)"><path d="M0.03 -0.41 C9.79 39.96, 48.63 201.32, 58.38 241.68 M-1.42 -1.66 C8.74 38.88, 50.18 202.11, 60.59 242.85" stroke="#000000" stroke-width="1" fill="none"></path></g><g transform="translate(471.61973625180383 73.82698376499441) rotate(0 29.584283608216197 120.59082783559069)"><path d="M43.01 216.44 C47.17 223.72, 52.05 232.3, 58.69 243.18 M43.34 218.62 C47.66 223.18, 51.7 227.97, 60.69 242.83" stroke="#000000" stroke-width="1" fill="none"></path></g><g transform="translate(471.61973625180383 73.82698376499441) rotate(0 29.584283608216197 120.59082783559069)"><path d="M62.9 211.38 C61.43 220.09, 60.71 230.09, 58.69 243.18 M63.22 213.56 C63.15 219.41, 62.83 225.32, 60.69 242.83" stroke="#000000" stroke-width="1" fill="none"></path></g></g><mask></mask><g transform="translate(35.69787757561346 208.15540555768035) rotate(0 97 18)"><text x="0" y="25" font-family="Virgil, Segoe UI Emoji" font-size="28px" fill="#000000" text-anchor="start" style="white-space: pre;" direction="ltr">Socket Server</text></g><g stroke-linecap="round"><g transform="translate(394.6002083256136 53.3374345096595) rotate(0 -64.22763834993958 78.74620929574708)"><path d="M0.86 0.58 C-20.78 26.98, -107.05 131.54, -128.71 157.65 M-0.15 -0.15 C-21.98 25.95, -107.72 129.36, -129.31 155.82" stroke="#000000" stroke-width="1" fill="none"></path></g><g transform="translate(394.6002083256136 53.3374345096595) rotate(0 -64.22763834993958 78.74620929574708)"><path d="M-8.18 29.97 C-4.12 18.19, -0.91 6.85, 1.63 -0.78 M-9.62 29.53 C-5.71 17.82, -0.91 8.83, 0.53 0.54" stroke="#000000" stroke-width="1" fill="none"></path></g><g transform="translate(394.6002083256136 53.3374345096595) rotate(0 -64.22763834993958 78.74620929574708)"><path d="M-24.02 16.92 C-13.85 10.12, -4.45 3.89, 1.63 -0.78 M-25.45 16.47 C-15.92 9.52, -5.4 5.24, 0.53 0.54" stroke="#000000" stroke-width="1" fill="none"></path></g><g transform="translate(394.6002083256136 53.3374345096595) rotate(0 -64.22763834993958 78.74620929574708)"><path d="M-118.34 128.65 C-122.44 139.11, -127.05 149.88, -128.54 154.46 M-119.77 128.2 C-123.53 136.89, -125.96 148.33, -129.64 155.78" stroke="#000000" stroke-width="1" fill="none"></path></g><g transform="translate(394.6002083256136 53.3374345096595) rotate(0 -64.22763834993958 78.74620929574708)"><path d="M-102.5 141.69 C-112.71 147.17, -123.51 152.84, -128.54 154.46 M-103.93 141.25 C-113.31 145.18, -121.46 151.91, -129.64 155.78" stroke="#000000" stroke-width="1" fill="none"></path></g></g><mask></mask><g stroke-linecap="round"><g transform="translate(264.9419377909006 221.96994643496367) rotate(0 119.38637970211465 47.083291577568076)"><path d="M-0.02 0.95 C39.97 16.34, 200.34 77.32, 240.26 92.79 M-1.48 0.4 C38.32 15.87, 199.37 77.99, 239.35 93.76" stroke="#000000" stroke-width="1" fill="none"></path></g><g transform="translate(264.9419377909006 221.96994643496367) rotate(0 119.38637970211465 47.083291577568076)"><path d="M31.56 1.55 C18.29 0.13, 10.01 2.42, 1.77 1.49 M29.23 2.38 C18.06 0.21, 5.63 1.18, -0.74 0.98" stroke="#000000" stroke-width="1" fill="none"></path></g><g transform="translate(264.9419377909006 221.96994643496367) rotate(0 119.38637970211465 47.083291577568076)"><path d="M24.24 20.73 C13.32 12.98, 7.46 8.94, 1.77 1.49 M21.91 21.55 C13.65 11.79, 4.12 5.13, -0.74 0.98" stroke="#000000" stroke-width="1" fill="none"></path></g><g transform="translate(264.9419377909006 221.96994643496367) rotate(0 119.38637970211465 47.083291577568076)"><path d="M210.94 93.23 C217.48 92.19, 229 94.86, 241.13 94.3 M208.61 94.06 C221.31 92.57, 232.73 93.99, 238.63 93.79" stroke="#000000" stroke-width="1" fill="none"></path></g><g transform="translate(264.9419377909006 221.96994643496367) rotate(0 119.38637970211465 47.083291577568076)"><path d="M218.39 74.11 C222.53 79.38, 231.59 88.36, 241.13 94.3 M216.06 74.93 C225.8 81.03, 234.26 90.05, 238.63 93.79" stroke="#000000" stroke-width="1" fill="none"></path></g></g><mask></mask><g transform="translate(40.85170954908642 327.6191922637707) rotate(0 61.5 38.5)"><text x="0" y="17.666666666666668" font-family="Virgil, Segoe UI Emoji" font-size="20px" fill="#000000" text-anchor="start" style="white-space: pre;" direction="ltr">Signaling</text><text x="0" y="43.333333333333336" font-family="Virgil, Segoe UI Emoji" font-size="20px" fill="#000000" text-anchor="start" style="white-space: pre;" direction="ltr">Room events</text><text x="0" y="69" font-family="Virgil, Segoe UI Emoji" font-size="20px" fill="#000000" text-anchor="start" style="white-space: pre;" direction="ltr"></text></g><g stroke-linecap="round"><g transform="translate(127.69530793307376 262.94141202366865) rotate(0 -24.535893856428174 29.28170738817218)"><path d="M-0.02 0 C-8.07 9.85, -40.91 49.8, -49.05 59.61 M-1.49 -1.05 C-9.09 8.45, -38.67 48.45, -46.75 58.09" stroke="#000000" stroke-width="1" fill="none"></path></g></g><mask></mask><g stroke-linecap="round" transform="translate(405.14880444281573 10) rotate(0 49.50682715105336 28.640313227882125)"><path d="M14.32 0 M14.32 0 C30.73 -0.11, 47.32 0.76, 84.69 0 M14.32 0 C32.45 0.43, 50.31 0.1, 84.69 0 M84.69 0 C95.2 -1.65, 99.54 4.02, 99.01 14.32 M84.69 0 C92.99 -0.22, 99.85 2.8, 99.01 14.32 M99.01 14.32 C97.72 22.19, 98.68 29.76, 99.01 42.96 M99.01 14.32 C98.67 21.17, 98.54 28.34, 99.01 42.96 M99.01 42.96 C99.52 53.61, 93.05 58.51, 84.69 57.28 M99.01 42.96 C100.98 51.94, 96.07 57.9, 84.69 57.28 M84.69 57.28 C70.1 56.03, 53.47 55.53, 14.32 57.28 M84.69 57.28 C57.66 57.4, 32.97 58.33, 14.32 57.28 M14.32 57.28 C5.76 57.19, -0.31 54.41, 0 42.96 M14.32 57.28 C5.85 58.49, -1.17 51.66, 0 42.96 M0 42.96 C-0.4 34.13, 1.8 27.4, 0 14.32 M0 42.96 C0.5 36.26, 0.53 31.03, 0 14.32 M0 14.32 C-0.81 6.47, 6.22 1.6, 14.32 0 M0 14.32 C1.2 5.39, 2.71 -1.59, 14.32 0" stroke="#000000" stroke-width="1" fill="none"></path></g><g stroke-linecap="round" transform="translate(436.58809964137254 326.74810038780515) rotate(0 107.0691230667914 28.64031322788213)"><path d="M14.32 0 M14.32 0 C84.2 0.62, 151.77 -0.69, 199.82 0 M14.32 0 C78.55 -0.62, 142.5 -0.75, 199.82 0 M199.82 0 C209.47 -0.22, 213.15 4.12, 214.14 14.32 M199.82 0 C211.31 0.19, 213.21 5.75, 214.14 14.32 M214.14 14.32 C215.99 21.42, 214.54 28.87, 214.14 42.96 M214.14 14.32 C213.87 20.19, 214.8 27.76, 214.14 42.96 M214.14 42.96 C215.15 50.74, 210.94 55.98, 199.82 57.28 M214.14 42.96 C214.51 52.42, 210.42 57.59, 199.82 57.28 M199.82 57.28 C145.67 56.05, 89.71 56.27, 14.32 57.28 M199.82 57.28 C137.89 58.59, 75.99 57.16, 14.32 57.28 M14.32 57.28 C4.8 56.62, -0.15 52.7, 0 42.96 M14.32 57.28 C6.57 55.92, 0.39 54.1, 0 42.96 M0 42.96 C0.1 34.44, -2.2 28.17, 0 14.32 M0 42.96 C0.08 31.33, -0.31 22.35, 0 14.32 M0 14.32 C-1.95 3.03, 5.2 0.91, 14.32 0 M0 14.32 C-0.03 3.09, 5.19 -0.96, 14.32 0" stroke="#000000" stroke-width="1" fill="none"></path></g><g stroke-linecap="round" transform="translate(10 196.80101877159865) rotate(0 121.72954939174025 28.64031322788213)"><path d="M14.32 0 M14.32 0 C75.13 0.87, 139.9 1.86, 229.14 0 M14.32 0 C71.06 -1.51, 126.68 -1.99, 229.14 0 M229.14 0 C240.39 1.92, 244.3 6.58, 243.46 14.32 M229.14 0 C238.74 -0.26, 244.67 5.25, 243.46 14.32 M243.46 14.32 C243.14 20, 241.75 31.32, 243.46 42.96 M243.46 14.32 C243.93 21.15, 243.1 28.64, 243.46 42.96 M243.46 42.96 C241.86 53.42, 237.58 59.23, 229.14 57.28 M243.46 42.96 C244.52 51.45, 239.51 58.15, 229.14 57.28 M229.14 57.28 C155.84 55.63, 77.7 56.82, 14.32 57.28 M229.14 57.28 C163.94 59.29, 97.43 58.92, 14.32 57.28 M14.32 57.28 C4.63 56.58, 0.16 51.83, 0 42.96 M14.32 57.28 C6.37 57.64, 1.36 50.97, 0 42.96 M0 42.96 C0.47 36.96, -0.58 31.49, 0 14.32 M0 42.96 C0.17 37.5, 0.04 31.38, 0 14.32 M0 14.32 C-1.24 6.3, 6.66 -0.6, 14.32 0 M0 14.32 C1.79 5.55, 6.78 -0.28, 14.32 0" stroke="#000000" stroke-width="1" fill="none"></path></g></svg>